<svg width="50" height="50" viewBox="0 0 50 50" fill="none" xmlns="http://www.w3.org/2000/svg">
<path d="M0 24.3902C0 12.8926 0 7.14374 3.57187 3.57187C7.14374 0 12.8926 0 24.3902 0H25C36.4977 0 42.2465 0 45.8184 3.57187C49.3902 7.14374 49.3902 12.8926 49.3902 24.3902V25C49.3902 36.4977 49.3902 42.2465 45.8184 45.8184C42.2465 49.3902 36.4977 49.3902 25 49.3902H24.3902C12.8926 49.3902 7.14374 49.3902 3.57187 45.8184C0 42.2465 0 36.4977 0 25V24.3902Z" fill="#E1F4FF"/>
<path d="M28.0283 29.6951V36.3618L31.3617 33.8618L34.695 36.3618V29.6951M36.3617 20.5284V14.6951C36.3617 13.7746 35.6155 13.0284 34.695 13.0284H14.695C13.7745 13.0284 13.0283 13.7746 13.0283 14.6951V34.6951C13.0283 35.6156 13.7745 36.3618 14.695 36.3618H25.5283M17.195 19.6951H25.5283M17.195 24.6951H22.195M31.3617 31.3618C28.6002 31.3618 26.3617 29.1232 26.3617 26.3618C26.3617 23.6004 28.6002 21.3618 31.3617 21.3618C34.1231 21.3618 36.3617 23.6004 36.3617 26.3618C36.3617 29.1232 34.1231 31.3618 31.3617 31.3618Z" stroke="#1084C6" stroke-width="1.5" stroke-linejoin="round"/>
</svg>
