<svg width="50" height="50" viewBox="0 0 50 50" fill="none" xmlns="http://www.w3.org/2000/svg">
<path d="M0.5 24.8903C0.5 13.3194 0.5 7.534 4.07187 3.96213C7.64374 0.390259 13.4292 0.390259 25 0.390259C36.5708 0.390259 42.3563 0.390259 45.9281 3.96213C49.5 7.534 49.5 13.3194 49.5 24.8903C49.5 36.4611 49.5 42.2465 45.9281 45.8184C42.3563 49.3903 36.5708 49.3903 25 49.3903C13.4292 49.3903 7.64374 49.3903 4.07187 45.8184C0.5 42.2465 0.5 36.4611 0.5 24.8903Z" fill="#E1F4FF"/>
<path d="M14 17.7703L17.8785 19.776L21.3433 19.2015C21.9202 19.1055 22.512 19.1343 23.0759 19.2857C23.6397 19.4371 24.1614 19.7074 24.6031 20.0769M32.9752 28.3038L27.4916 32.0501C26.9029 32.4523 26.2002 32.6714 25.478 32.6781C24.7559 32.6848 24.0489 32.4787 23.4523 32.0875L14 25.8918" stroke="#1084C6" stroke-width="1.5" stroke-linecap="round" stroke-linejoin="round"/>
<path d="M36.7236 25.8524L32.8433 28.4021L26.8223 23.7277L24.6073 25.2762C24.1738 25.5789 23.635 25.708 23.1045 25.6363C22.5739 25.5647 22.093 25.2978 21.7629 24.8921C21.4342 24.4867 21.2817 23.9745 21.3374 23.4633C21.3931 22.952 21.6527 22.4814 22.0617 22.1503L24.3686 20.2857C24.9155 19.8431 25.5497 19.5113 26.2332 19.3104C26.9167 19.1094 27.6354 19.0434 28.3461 19.1162L31.94 19.4868L36.7236 17" stroke="#1084C6" stroke-width="1.5" stroke-linecap="round" stroke-linejoin="round"/>
<path d="M26.8213 23.7397C28.2709 24.9806 30.325 24.3466 31.0887 23.3335" stroke="#1084C6" stroke-width="1.5" stroke-linecap="round" stroke-linejoin="round"/>
</svg>
