<svg width="50" height="50" viewBox="0 0 50 50" fill="none" xmlns="http://www.w3.org/2000/svg">
<path d="M0.5 24.3902C0.5 12.8926 0.5 7.14374 4.07187 3.57187C7.64374 0 13.3926 0 24.8902 0H25.5C36.9977 0 42.7465 0 46.3184 3.57187C49.8902 7.14374 49.8902 12.8926 49.8902 24.3902V25C49.8902 36.4977 49.8902 42.2465 46.3184 45.8184C42.7465 49.3902 36.9977 49.3902 25.5 49.3902H24.8902C13.3926 49.3902 7.64374 49.3902 4.07187 45.8184C0.5 42.2465 0.5 36.4977 0.5 25V24.3902Z" fill="#E1F4FF"/>
<rect x="13.4453" y="12.9451" width="23.5" height="23.5" rx="11.75" stroke="#1084C6" stroke-width="1.5"/>
<path d="M25 29.0402L20.6735 31.3149L21.5 26.4971L18 23.0854L22.8368 22.383L25 17.9998L27.1632 22.383L32 23.0854L28.5 26.4971L29.3265 31.3149L25 29.0402Z" stroke="#1084C6" stroke-width="1.5" stroke-linecap="round" stroke-linejoin="round"/>
</svg>
