<svg width="111" height="26" viewBox="0 0 111 26" fill="none" xmlns="http://www.w3.org/2000/svg">
<path d="M7.06933 3.10471H0.628726C0.434485 3.10471 0.281137 3.04863 0.168682 2.93647C0.0562275 2.82431 0 2.67137 0 2.47765V0.627059C0 0.433333 0.0562275 0.280392 0.168682 0.168235C0.281137 0.0560784 0.434485 0 0.628726 0H7.06933C7.26357 0 7.41692 0.0560784 7.52937 0.168235C7.64183 0.280392 7.69806 0.433333 7.69806 0.627059V2.47765C7.69806 2.67137 7.64183 2.82431 7.52937 2.93647C7.41692 3.04863 7.26357 3.10471 7.06933 3.10471ZM10.213 21.9318H8.32678C8.13254 21.9318 7.97919 21.8757 7.86674 21.7635C7.75428 21.6514 7.69806 21.4984 7.69806 21.3047V4.57294C7.69806 4.14471 7.89741 3.88471 8.29611 3.79294L10.2436 3.25765C10.6526 3.16588 10.903 2.91608 10.995 2.50824L11.5317 0.596471C11.6238 0.198824 11.8844 0 12.3138 0H17.911C18.1053 0 18.2586 0.0560784 18.3711 0.168235C18.4835 0.280392 18.5397 0.433333 18.5397 0.627059V2.47765C18.5397 2.67137 18.4835 2.82431 18.3711 2.93647C18.2586 3.04863 18.1053 3.10471 17.911 3.10471H12.2832C11.8947 3.10471 11.5573 3.24745 11.2711 3.53294C10.9848 3.81843 10.8417 4.1549 10.8417 4.54235V21.3047C10.8417 21.4984 10.7855 21.6514 10.673 21.7635C10.5605 21.8757 10.4072 21.9318 10.213 21.9318Z" fill="#161C2D"/>
<path d="M36.8341 14.1012H27.4952C27.0965 14.1012 26.7541 14.2388 26.4678 14.5141C26.1918 14.7792 26.0538 15.1106 26.0538 15.5082V21.3047C26.0538 21.4984 25.9975 21.6514 25.8851 21.7635C25.7726 21.8757 25.6193 21.9318 25.4251 21.9318H23.5695C23.3753 21.9318 23.222 21.8757 23.1095 21.7635C22.997 21.6514 22.9408 21.4984 22.9408 21.3047V15.5388C22.9408 15.1106 23.1402 14.8506 23.5389 14.7588L25.4557 14.2541C25.8646 14.1624 26.1151 13.9125 26.2071 13.5047L26.7438 11.5624C26.8359 11.1647 27.0965 10.9659 27.5259 10.9659H36.9261C37.3248 10.9659 37.6622 10.8333 37.9382 10.5682C38.2245 10.2929 38.3676 9.95647 38.3676 9.55882V4.57294C38.3676 4.18549 38.2245 3.84902 37.9382 3.56353C37.652 3.27804 37.3146 3.13529 36.9261 3.13529H27.4952C27.1068 3.13529 26.7694 3.27804 26.4832 3.56353C26.1969 3.84902 26.0538 4.18549 26.0538 4.57294V10.3388C26.0538 10.5325 25.9975 10.6855 25.8851 10.7976C25.7726 10.9098 25.6193 10.9659 25.4251 10.9659H23.5695C23.3753 10.9659 23.222 10.9098 23.1095 10.7976C22.997 10.6855 22.9408 10.5325 22.9408 10.3388V6.89765C22.9408 6.52039 23.0891 6.16353 23.3855 5.82706L25.6091 3.57882C25.926 3.22196 26.1253 2.87529 26.2071 2.53882L26.7438 0.596471C26.8359 0.198824 27.0965 0 27.5259 0H36.8955C37.3248 0 37.5855 0.198824 37.6775 0.596471L38.2143 2.53882C38.296 2.87529 38.4954 3.22196 38.8123 3.57882L41.0359 5.82706C41.3323 6.16353 41.4806 6.52039 41.4806 6.89765V9.52824C41.4806 9.95647 41.2812 10.2165 40.8825 10.3082L38.9043 10.8129C38.4954 10.9047 38.2449 11.1545 38.1529 11.5624L37.6162 13.5047C37.5242 13.9024 37.2635 14.1012 36.8341 14.1012ZM41.4806 14.7282V21.3047C41.4806 21.4984 41.4243 21.6514 41.3119 21.7635C41.1994 21.8757 41.0461 21.9318 40.8518 21.9318H38.9963C38.8021 21.9318 38.6487 21.8757 38.5363 21.7635C38.4238 21.6514 38.3676 21.4984 38.3676 21.3047V14.7282C38.3676 14.5345 38.4238 14.3816 38.5363 14.2694C38.6487 14.1573 38.8021 14.1012 38.9963 14.1012H40.8518C41.0461 14.1012 41.1994 14.1573 41.3119 14.2694C41.4243 14.3816 41.4806 14.5345 41.4806 14.7282Z" fill="#161C2D"/>
<path d="M50.4361 9.40588H59.9896C60.419 9.40588 60.6797 9.59451 60.7717 9.97176L61.3391 11.9447C61.4311 12.3424 61.6918 12.5412 62.1212 12.5412H63.7927C63.9869 12.5412 64.1402 12.5973 64.2527 12.7094C64.3652 12.8216 64.4214 12.9745 64.4214 13.1682V17.3588C64.4214 17.7871 64.222 18.0471 63.8233 18.1388L61.9065 18.6435C61.4975 18.7353 61.2471 18.9851 61.1551 19.3929L60.6184 21.3353C60.5263 21.7329 60.2657 21.9318 59.8363 21.9318H50.4667C50.0374 21.9318 49.7767 21.7329 49.6847 21.3353L49.1479 19.3929C49.0559 18.9851 48.8055 18.7353 48.3965 18.6435L46.4797 18.1388C46.081 18.0471 45.8816 17.7871 45.8816 17.3588V15.4776C45.8816 15.2839 45.9379 15.131 46.0503 15.0188C46.1628 14.9067 46.3161 14.8506 46.5104 14.8506H48.3659C48.5601 14.8506 48.7135 14.9067 48.8259 15.0188C48.9384 15.131 48.9946 15.2839 48.9946 15.4776V17.3894C48.9946 17.7871 49.1326 18.1235 49.4086 18.3988C49.6949 18.6639 50.0374 18.7965 50.4361 18.7965H59.867C60.2657 18.7965 60.603 18.6639 60.879 18.3988C61.1653 18.1235 61.3084 17.7871 61.3084 17.3894V13.9482C61.3084 13.571 61.1602 13.2447 60.8637 12.9694C60.5775 12.6839 60.2452 12.5412 59.867 12.5412H50.3134C49.884 12.5412 49.6233 12.3525 49.5313 11.9753L48.9639 10.0024C48.8719 9.60471 48.6112 9.40588 48.1819 9.40588H46.5104C46.3161 9.40588 46.1628 9.3498 46.0503 9.23765C45.9379 9.12549 45.8816 8.97255 45.8816 8.77882V4.60353C45.8816 4.17529 46.081 3.91529 46.4797 3.82353L48.3965 3.28824C48.8055 3.19647 49.0559 2.94667 49.1479 2.53882L49.6847 0.596471C49.7767 0.198824 50.0374 0 50.4667 0H59.7749C60.2043 0 60.465 0.198824 60.557 0.596471L61.0937 2.53882C61.1857 2.94667 61.4362 3.19647 61.8451 3.28824L63.8233 3.82353C64.222 3.91529 64.4214 4.17529 64.4214 4.60353V6.48471C64.4214 6.67843 64.3652 6.83137 64.2527 6.94353C64.1402 7.05569 63.9869 7.11176 63.7927 7.11176H61.9371C61.7429 7.11176 61.5896 7.05569 61.4771 6.94353C61.3646 6.83137 61.3084 6.67843 61.3084 6.48471V4.57294C61.3084 4.18549 61.1653 3.84902 60.879 3.56353C60.5928 3.27804 60.2554 3.13529 59.867 3.13529H50.4361C50.0476 3.13529 49.7102 3.27804 49.424 3.56353C49.1377 3.84902 48.9946 4.18549 48.9946 4.57294V7.99882C48.9946 8.37608 49.1377 8.70745 49.424 8.99294C49.7204 9.26824 50.0578 9.40588 50.4361 9.40588Z" fill="#161C2D"/>
<path d="M79.6641 23.3694V25.3729C79.6641 25.5667 79.6079 25.7196 79.4955 25.8318C79.383 25.9439 79.2297 26 79.0354 26H77.1799C76.9857 26 76.8323 25.9439 76.7199 25.8318C76.6074 25.7196 76.5512 25.5667 76.5512 25.3729V23.3694C76.5512 22.982 76.4081 22.6455 76.1218 22.36C75.8356 22.0745 75.4982 21.9318 75.1097 21.9318H73.4076C72.9782 21.9318 72.7175 21.7329 72.6255 21.3353L72.0888 19.3929C71.9968 18.9851 71.7463 18.7353 71.3374 18.6435L69.4205 18.1388C69.0218 18.0471 68.8225 17.7871 68.8225 17.3588V4.60353C68.8225 4.17529 69.0218 3.91529 69.4205 3.82353L71.3374 3.28824C71.7463 3.19647 71.9968 2.94667 72.0888 2.53882L72.6255 0.596471C72.7175 0.198824 72.9782 0 73.4076 0H82.7158C83.1451 0 83.4058 0.198824 83.4978 0.596471L84.0346 2.53882C84.1266 2.94667 84.377 3.19647 84.786 3.28824L86.7641 3.82353C87.1628 3.91529 87.3622 4.17529 87.3622 4.60353V17.3588C87.3622 17.7871 87.1628 18.0471 86.7641 18.1388L84.786 18.6435C84.377 18.7353 84.1266 18.9851 84.0346 19.3929L83.4978 21.3353C83.4058 21.7329 83.1451 21.9318 82.7158 21.9318H80.2929C80.0986 21.9318 79.9453 21.8757 79.8328 21.7635C79.7204 21.6514 79.6641 21.4984 79.6641 21.3047V19.4235C79.6641 19.2298 79.7204 19.0769 79.8328 18.9647C79.9453 18.8525 80.0986 18.7965 80.2929 18.7965H82.8078C83.2065 18.7965 83.5438 18.6639 83.8199 18.3988C84.1061 18.1235 84.2492 17.7871 84.2492 17.3894V4.57294C84.2492 4.18549 84.1061 3.84902 83.8199 3.56353C83.5336 3.27804 83.1963 3.13529 82.8078 3.13529H73.3769C72.9884 3.13529 72.651 3.27804 72.3648 3.56353C72.0785 3.84902 71.9354 4.18549 71.9354 4.57294V17.3894C71.9354 17.7871 72.0734 18.1235 72.3495 18.3988C72.6357 18.6639 72.9782 18.7965 73.3769 18.7965H75.0484C75.4777 18.7965 75.7384 18.9953 75.8304 19.3929L76.3672 21.3047C76.4592 21.7125 76.7096 21.9624 77.1186 22.0541L79.0661 22.5894C79.4648 22.6812 79.6641 22.9412 79.6641 23.3694Z" fill="#161C2D"/>
<path d="M105.657 14.1012H96.3177C95.919 14.1012 95.5765 14.2388 95.2903 14.5141C95.0142 14.7792 94.8762 15.1106 94.8762 15.5082V21.3047C94.8762 21.4984 94.82 21.6514 94.7076 21.7635C94.5951 21.8757 94.4417 21.9318 94.2475 21.9318H92.392C92.1978 21.9318 92.0444 21.8757 91.932 21.7635C91.8195 21.6514 91.7633 21.4984 91.7633 21.3047V15.5388C91.7633 15.1106 91.9626 14.8506 92.3613 14.7588L94.2782 14.2541C94.6871 14.1624 94.9376 13.9125 95.0296 13.5047L95.5663 11.5624C95.6583 11.1647 95.919 10.9659 96.3484 10.9659H105.749C106.147 10.9659 106.485 10.8333 106.761 10.5682C107.047 10.2929 107.19 9.95647 107.19 9.55882V4.57294C107.19 4.18549 107.047 3.84902 106.761 3.56353C106.474 3.27804 106.137 3.13529 105.749 3.13529H96.3177C95.9292 3.13529 95.5919 3.27804 95.3056 3.56353C95.0194 3.84902 94.8762 4.18549 94.8762 4.57294V10.3388C94.8762 10.5325 94.82 10.6855 94.7076 10.7976C94.5951 10.9098 94.4417 10.9659 94.2475 10.9659H92.392C92.1978 10.9659 92.0444 10.9098 91.932 10.7976C91.8195 10.6855 91.7633 10.5325 91.7633 10.3388V6.89765C91.7633 6.52039 91.9115 6.16353 92.208 5.82706L94.4315 3.57882C94.7484 3.22196 94.9478 2.87529 95.0296 2.53882L95.5663 0.596471C95.6583 0.198824 95.919 0 96.3484 0H105.718C106.147 0 106.408 0.198824 106.5 0.596471L107.037 2.53882C107.118 2.87529 107.318 3.22196 107.635 3.57882L109.858 5.82706C110.155 6.16353 110.303 6.52039 110.303 6.89765V9.52824C110.303 9.95647 110.104 10.2165 109.705 10.3082L107.727 10.8129C107.318 10.9047 107.067 11.1545 106.975 11.5624L106.439 13.5047C106.347 13.9024 106.086 14.1012 105.657 14.1012ZM110.303 14.7282V21.3047C110.303 21.4984 110.247 21.6514 110.134 21.7635C110.022 21.8757 109.869 21.9318 109.674 21.9318H107.819C107.625 21.9318 107.471 21.8757 107.359 21.7635C107.246 21.6514 107.19 21.4984 107.19 21.3047V14.7282C107.19 14.5345 107.246 14.3816 107.359 14.2694C107.471 14.1573 107.625 14.1012 107.819 14.1012H109.674C109.869 14.1012 110.022 14.1573 110.134 14.2694C110.247 14.3816 110.303 14.5345 110.303 14.7282Z" fill="#161C2D"/>
</svg>
