<svg width="24" height="25" viewBox="0 0 24 25" fill="none" xmlns="http://www.w3.org/2000/svg">
<g opacity="0.6">
<path d="M8.66992 19.24V13.71" stroke="#2195D7" stroke-width="1.5" stroke-linecap="round" stroke-linejoin="round"/>
<path d="M1.98059 12.49C1.95575 12.0367 2.02361 11.5831 2.17999 11.1569C2.33637 10.7306 2.57799 10.3408 2.89012 10.0111C3.20224 9.68142 3.5783 9.41878 3.99533 9.23932C4.41235 9.05986 4.86159 8.96735 5.31559 8.96735C5.76959 8.96735 6.21882 9.05986 6.63584 9.23932C7.05287 9.41878 7.42893 9.68142 7.74105 10.0111C8.05318 10.3408 8.29482 10.7306 8.4512 11.1569C8.60758 11.5831 8.67542 12.0367 8.65058 12.49V18.12C8.67542 18.5733 8.60758 19.027 8.4512 19.4532C8.29482 19.8794 8.05318 20.2692 7.74105 20.5989C7.42893 20.9286 7.05287 21.1912 6.63584 21.3707C6.21882 21.5501 5.76959 21.6427 5.31559 21.6427C4.86159 21.6427 4.41235 21.5501 3.99533 21.3707C3.5783 21.1912 3.20224 20.9286 2.89012 20.5989C2.57799 20.2692 2.33637 19.8794 2.17999 19.4532C2.02361 19.027 1.95575 18.5733 1.98059 18.12V12.49Z" stroke="#2195D7" stroke-width="1.3" stroke-linecap="round" stroke-linejoin="round"/>
<path d="M8.66998 18.12C8.66735 18.5599 8.75139 18.9961 8.91731 19.4035C9.08324 19.811 9.32779 20.1818 9.63701 20.4947C9.94623 20.8076 10.3141 21.0566 10.7195 21.2274C11.1249 21.3981 11.5601 21.4874 12 21.49H16.12C17.0807 21.4893 18.0152 21.177 18.7833 20.6C19.5514 20.023 20.1117 19.2124 20.38 18.29L21.88 13.21C21.9994 12.8723 22.0365 12.511 21.9881 12.1561C21.9397 11.8012 21.8074 11.463 21.602 11.1696C21.3966 10.8762 21.1241 10.636 20.8072 10.4691C20.4903 10.3022 20.1381 10.2134 19.78 10.21H14.26V4.92999C14.2613 4.73826 14.2248 4.54818 14.1527 4.37054C14.0805 4.1929 13.9741 4.03122 13.8394 3.89471C13.7048 3.75821 13.5446 3.64953 13.3679 3.57495C13.1913 3.50037 13.0017 3.46133 12.81 3.46002V3.46002C12.4945 3.46145 12.1881 3.56573 11.9373 3.75702C11.6864 3.94831 11.5048 4.21618 11.42 4.52002L8.66998 13.68" stroke="#2195D7" stroke-width="1.3" stroke-linecap="round" stroke-linejoin="round"/>
</g>
</svg>
