<svg width="22" height="20" viewBox="0 0 22 20" fill="none" xmlns="http://www.w3.org/2000/svg">
<path d="M7 16L9.29001 18.29C9.51401 18.5156 9.78041 18.6946 10.0739 18.8168C10.3674 18.9389 10.6821 19.0018 11 19.0018C11.3179 19.0018 11.6326 18.9389 11.9261 18.8168C12.2196 18.6946 12.486 18.5156 12.71 18.29L15 16H17C18.0609 16 19.0783 15.5786 19.8284 14.8285C20.5786 14.0783 21 13.0609 21 12V5C21 3.93913 20.5786 2.92178 19.8284 2.17163C19.0783 1.42149 18.0609 1 17 1H5C3.93913 1 2.92172 1.42149 2.17157 2.17163C1.42142 2.92178 1 3.93913 1 5V12C1 13.0609 1.42142 14.0783 2.17157 14.8285C2.92172 15.5786 3.93913 16 5 16H7Z" stroke="#1084C6" stroke-width="1.5" stroke-linecap="round" stroke-linejoin="round"/>
</svg>
