<svg width="22" height="22" viewBox="0 0 22 22" fill="none" xmlns="http://www.w3.org/2000/svg">
<path d="M13.4278 15.1044L14.8132 13.7189C15.0264 13.5032 15.2802 13.3318 15.5601 13.2149C15.8399 13.098 16.1401 13.0379 16.4434 13.0379C16.7467 13.0379 17.0469 13.098 17.3268 13.2149C17.6066 13.3318 17.8605 13.5032 18.0736 13.7189L19.6986 15.344C19.9144 15.5571 20.0856 15.8108 20.2025 16.0906C20.3194 16.3705 20.3796 16.6708 20.3796 16.9741C20.3796 17.2774 20.3194 17.5778 20.2025 17.8576C20.0856 18.1374 19.9144 18.3911 19.6986 18.6043L18.959 19.3542C18.4494 19.8688 17.7903 20.2094 17.0758 20.3272C16.3612 20.4451 15.6277 20.3343 14.9798 20.0106C9.4052 17.1409 4.8645 12.6038 1.99029 7.03149C1.66625 6.38298 1.55623 5.64841 1.67602 4.93341C1.79581 4.21841 2.13926 3.55975 2.65697 3.05226L3.39651 2.30229C3.82978 1.87164 4.41585 1.62988 5.02672 1.62988C5.6376 1.62988 6.22367 1.87164 6.65693 2.30229L8.29236 3.93777C8.723 4.37104 8.9647 4.95704 8.9647 5.56792C8.9647 6.1788 8.723 6.7648 8.29236 7.19807L6.90692 8.58357C7.82297 9.82267 8.82919 10.9924 9.91736 12.0834C10.9992 13.1672 12.1623 14.1667 13.3966 15.0731L13.4278 15.1044Z" stroke="#1084C6" stroke-width="1.5" stroke-linecap="round" stroke-linejoin="round"/>
</svg>
